<svg xmlns="http://www.w3.org/2000/svg" viewBox="0 0 101.78 90"><defs><style>.cls-1{fill:#121a24;}</style></defs><g id="Layer_2" data-name="Layer 2"><g id="Layer_1-2" data-name="Layer 1"><path class="cls-1" d="M30.9,89.68V83a.27.27,0,0,1,.29-.31h.52a1.17,1.17,0,0,1,.29,0c.09,0,.14.1.18.23l.06.34a2.42,2.42,0,0,1,.59-.53,1.63,1.63,0,0,1,.8-.19,2.3,2.3,0,0,1,1,.21,2.48,2.48,0,0,1,.78.58,2.76,2.76,0,0,1,.52.84,2.84,2.84,0,0,1,.19,1,3,3,0,0,1-.18,1,2.7,2.7,0,0,1-.52.85,2.49,2.49,0,0,1-.79.58,2.55,2.55,0,0,1-1,.2,1.53,1.53,0,0,1-.72-.16,1.84,1.84,0,0,1-.52-.38v2.29a.36.36,0,0,1-.08.23A.33.33,0,0,1,32,90h-.8a.36.36,0,0,1-.24-.08.3.3,0,0,1-.1-.24m1.32-4.46a1.32,1.32,0,0,0,.1.53,1.29,1.29,0,0,0,.26.42,1.33,1.33,0,0,0,.38.29,1.12,1.12,0,0,0,.47.11,1.07,1.07,0,0,0,.46-.11,1.28,1.28,0,0,0,.37-.29,1.55,1.55,0,0,0,.25-.41,1.44,1.44,0,0,0-.25-1.45,1.25,1.25,0,0,0-.37-.28,1.06,1.06,0,0,0-.46-.1A1,1,0,0,0,33,84a1.31,1.31,0,0,0-.38.27,1.51,1.51,0,0,0-.27.42,1.39,1.39,0,0,0-.1.5"/><path class="cls-1" d="M37.51,81.14a.82.82,0,0,1,1.4-.58.82.82,0,0,1,.23.58.78.78,0,0,1-.23.57.82.82,0,0,1-1.16,0,.75.75,0,0,1-.24-.57m1.57,1.8v4.71q0,.24-.27.24h-.92a.21.21,0,0,1-.24-.24V82.94a.24.24,0,0,1,.06-.18.21.21,0,0,1,.18-.07h.92a.24.24,0,0,1,.18.07.2.2,0,0,1,.09.18"/><path class="cls-1" d="M41.11,83a.32.32,0,0,1,.09-.24.36.36,0,0,1,.24-.08H45.2a.32.32,0,0,1,.23.08.27.27,0,0,1,.1.24v.79a.31.31,0,0,1-.05.1L43,86.58h2.22a.29.29,0,0,1,.32.33v.63a.36.36,0,0,1-.09.24.3.3,0,0,1-.23.11H41.32a.3.3,0,0,1-.23-.1.4.4,0,0,1-.09-.25v-.67a.14.14,0,0,1,.06-.11c.18-.21.39-.43.61-.66l.67-.71.67-.71c.23-.24.43-.46.61-.67H41.44c-.22,0-.33-.11-.33-.34Z"/><path class="cls-1" d="M47.12,83a.32.32,0,0,1,.09-.24.36.36,0,0,1,.24-.08h3.76a.32.32,0,0,1,.23.08.27.27,0,0,1,.1.24v.79a.31.31,0,0,1,0,.1L49,86.58h2.21a.29.29,0,0,1,.33.33v.63a.36.36,0,0,1-.09.24.3.3,0,0,1-.24.11H47.33a.29.29,0,0,1-.23-.1.4.4,0,0,1-.09-.25v-.67a.14.14,0,0,1,.06-.11c.18-.21.39-.43.61-.66l.67-.71.67-.71c.23-.24.43-.46.61-.67H47.45c-.22,0-.33-.11-.33-.34Z"/><path class="cls-1" d="M56.92,87.61c0-.08,0-.13,0-.18s0-.1,0-.17a2.47,2.47,0,0,1-.21.27,1.31,1.31,0,0,1-.28.24,1.25,1.25,0,0,1-.37.16,1.53,1.53,0,0,1-.51.07h0a2.5,2.5,0,0,1-1-.21,2.37,2.37,0,0,1-.81-.57,2.77,2.77,0,0,1-.53-.85,2.85,2.85,0,0,1-.19-1.06,3.08,3.08,0,0,1,.18-1.07,2.55,2.55,0,0,1,.53-.85,2.37,2.37,0,0,1,.81-.57,2.51,2.51,0,0,1,1-.21,1.49,1.49,0,0,1,.88.23,2.5,2.5,0,0,1,.55.53L57,83a.75.75,0,0,1,.09-.24.34.34,0,0,1,.2,0l.6,0a.28.28,0,0,1,.21.08.26.26,0,0,1,.1.2v4.66a.23.23,0,0,1-.1.19.31.31,0,0,1-.21.07h-.68a.27.27,0,0,1-.22-.08.52.52,0,0,1-.08-.2m-2.63-2.29a1.67,1.67,0,0,0,.09.55,1.26,1.26,0,0,0,.25.44,1.21,1.21,0,0,0,.41.3,1.24,1.24,0,0,0,.52.11,1.17,1.17,0,0,0,.93-.4,1.48,1.48,0,0,0,.35-1,1.67,1.67,0,0,0-.09-.55,1.24,1.24,0,0,0-.25-.45,1.08,1.08,0,0,0-.4-.31,1.19,1.19,0,0,0-.54-.11A1.17,1.17,0,0,0,55,84a1,1,0,0,0-.4.31,1.41,1.41,0,0,0-.25.45,1.61,1.61,0,0,0-.09.54"/><path class="cls-1" d="M78.17,82.94l.41,1.2.3.84c.09.27.19.53.29.79l1-2.8a.55.55,0,0,1,.14-.21.33.33,0,0,1,.24-.07h.84c.2,0,.3.08.3.25a.13.13,0,0,1,0,.06v.06l-.33.92c.09.27.19.56.31.86s.23.62.36.94l.3-.81c.11-.34.23-.67.34-1s.23-.67.35-1a.44.44,0,0,1,.15-.21.42.42,0,0,1,.21-.06h1c.19,0,.28.07.28.22a.24.24,0,0,1,0,.15l-1.81,4.52a1.44,1.44,0,0,1-.11.19.29.29,0,0,1-.26.12h-.76a.37.37,0,0,1-.2,0,.49.49,0,0,1-.12-.13.47.47,0,0,1-.06-.15l0-.1-.45-1.14a1.2,1.2,0,0,1-.09-.21,1.85,1.85,0,0,1-.09-.23l-.21.51-.12.29-.12.3-.23.58s0,0,0,0v0l-.12.18a.27.27,0,0,1-.22.09h-.79a.31.31,0,0,1-.28-.13c0-.09-.09-.18-.13-.27-.28-.69-.52-1.28-.71-1.77s-.36-.9-.49-1.23-.23-.58-.3-.77-.13-.33-.17-.43l-.07-.19a.06.06,0,0,0,0,0,.59.59,0,0,1,0-.13c0-.15.09-.23.28-.23h1a.28.28,0,0,1,.21.07.37.37,0,0,1,.14.18"/><path class="cls-1" d="M86,81.14a.82.82,0,0,1,.82-.82.77.77,0,0,1,.58.24.78.78,0,0,1,.24.58.75.75,0,0,1-.24.57.77.77,0,0,1-.58.24.78.78,0,0,1-.58-.24.75.75,0,0,1-.24-.57m1.57,1.8v4.71c0,.16-.08.24-.26.24h-.92c-.17,0-.25-.08-.25-.24V82.94a.24.24,0,0,1,.25-.25h.92a.27.27,0,0,1,.18.07.22.22,0,0,1,.08.18"/><path class="cls-1" d="M90.75,82.69a.48.48,0,0,1,.24,0,.44.44,0,0,1,.12.15.71.71,0,0,1,.06.22c0,.08,0,.16.06.26a2.3,2.3,0,0,1,.65-.51,1.85,1.85,0,0,1,.94-.24,2.42,2.42,0,0,1,.88.16,1.83,1.83,0,0,1,.64.44,1.85,1.85,0,0,1,.41.66,2.55,2.55,0,0,1,.13.84v2.92a.27.27,0,0,1-.06.2.33.33,0,0,1-.19,0h-1c-.11,0-.18,0-.2,0s0-.09,0-.19V85a.91.91,0,0,0-.28-.7,1,1,0,0,0-.68-.26.94.94,0,0,0-.36.08,1.41,1.41,0,0,0-.34.19,1.06,1.06,0,0,0-.27.29.92.92,0,0,0-.15.36v2.73a.26.26,0,0,1,0,.18.3.3,0,0,1-.21,0h-1a.3.3,0,0,1-.2,0,.3.3,0,0,1,0-.18V83a.28.28,0,0,1,.32-.32Z"/><path class="cls-1" d="M99.31,86.76a1.43,1.43,0,0,0,.46-.07,2.35,2.35,0,0,0,.43-.19l.16-.09a.24.24,0,0,1,.14-.06.2.2,0,0,1,.16.1l.39.63a.21.21,0,0,1,0,.13.2.2,0,0,1,0,.15.65.65,0,0,1-.12.11,2.88,2.88,0,0,1-.73.4,2.43,2.43,0,0,1-.86.15,2.65,2.65,0,0,1-1-.21,2.83,2.83,0,0,1-.86-.58,2.72,2.72,0,0,1-.58-.86,2.58,2.58,0,0,1-.22-1.06,2.66,2.66,0,0,1,.21-1,3.08,3.08,0,0,1,.58-.87,2.68,2.68,0,0,1,.83-.59,2.37,2.37,0,0,1,1-.22,2.66,2.66,0,0,1,1,.19,2.69,2.69,0,0,1,.8.52,2.44,2.44,0,0,1,.54.77,2.29,2.29,0,0,1,.19.94,1.81,1.81,0,0,1-.07.6.28.28,0,0,1-.3.18H98.12a.94.94,0,0,0,.13.42,1.18,1.18,0,0,0,.29.3,1,1,0,0,0,.38.19,1.11,1.11,0,0,0,.39.07m-1.19-2h2.27a.92.92,0,0,0-.34-.68,1.17,1.17,0,0,0-.8-.28,1.22,1.22,0,0,0-.38.07,1.13,1.13,0,0,0-.35.21,1.14,1.14,0,0,0-.27.31,1,1,0,0,0-.13.37"/><path class="cls-1" d="M11.44,87.77a8.65,8.65,0,0,1-5.25-3.11,19.5,19.5,0,0,1-3.31-6.19,44,44,0,0,1-1.83-8c-.39-2.9-.66-5.78-.79-8.65s-.2-5.59-.2-8.16V47.22q-.19-8.41.25-16.67A164,164,0,0,1,2,14c.06-.33.18-1.21.35-2.63s.37-2.91.64-4.5.53-3,.79-4.25S4.38.73,4.71.73A3.76,3.76,0,0,0,6,.48,13,13,0,0,1,7.33.09,2.85,2.85,0,0,1,8.52,0a1.77,1.77,0,0,1,1,.79,9.39,9.39,0,0,1,1.28,3.36,21.47,21.47,0,0,1,.3,3.56c0,5.35-.1,10.65-.3,15.93s-.39,10.58-.59,15.92-.48,10.57-.84,15.88a72.2,72.2,0,0,0,.64,15.77c.07.47.2,1.21.4,2.23a20.87,20.87,0,0,0,.84,3.11,14.71,14.71,0,0,0,1.28,2.82,2.39,2.39,0,0,0,1.73,1.34,1.49,1.49,0,0,0,1.19-.64,5.94,5.94,0,0,0,.84-1.59q.34-.93.6-1.83c.16-.59.27-1,.34-1.38q1.38-5,2.33-10.19t2.22-10.19q2-7.51,4.5-14.93T32,25.46q1.38-2.87,2.92-5.89A35.09,35.09,0,0,1,38.44,14a4.27,4.27,0,0,1,.69-.75,5.73,5.73,0,0,1,.94-.69c.3-.16.48-.2.54-.1s-.09.45-.49,1a24.7,24.7,0,0,0-1.63,3c-.5,1.05-1,2.11-1.54,3.16q-3.26,7.13-6.23,14.54A88.93,88.93,0,0,0,26.17,49.3c-.53,2.57-1,5.16-1.28,7.76s-.69,5.19-1.09,7.76a74.59,74.59,0,0,1-1.58,7.62,38.2,38.2,0,0,1-2.77,7.32q-.6,1.29-1.29,2.82a16.4,16.4,0,0,1-1.58,2.77,7.28,7.28,0,0,1-2.13,2,4.32,4.32,0,0,1-3,.44"/><path class="cls-1" d="M41,59.83a15,15,0,0,1-1.29,1,13,13,0,0,1-1.33.84c-.43.23-.71.21-.85-.05a6,6,0,0,1,.1-4.4c.6-1.62,1.09-3,1.49-4.31a27.42,27.42,0,0,0,1.09-4.2,10.52,10.52,0,0,0-.1-4.3,14.36,14.36,0,0,0-.6-1.58,4.73,4.73,0,0,0-1-1.49,1.4,1.4,0,0,0-1.23-.49c-.43.07-.84.53-1.24,1.38a40.44,40.44,0,0,0-2.77,9A34,34,0,0,0,33,60.67a11.38,11.38,0,0,0,.34,1.68A5,5,0,0,0,34.14,64a4,4,0,0,0,1.24,1.14,2.34,2.34,0,0,0,1.68.2,3.34,3.34,0,0,0,1.73-.79A8.59,8.59,0,0,0,40.28,63a11.41,11.41,0,0,0,1.08-1.88,4.56,4.56,0,0,0,.45-1.88,4.2,4.2,0,0,0-.79.64m.89-.55c0-.06,0-.09.05-.09s0-.07,0-.2c-.2,0-.24.1-.1.29"/><path class="cls-1" d="M101.41,47.13a29.07,29.07,0,0,1-.64,4.14,34.56,34.56,0,0,1-1.21,4.16,42.82,42.82,0,0,1-1.67,4.06,21,21,0,0,1-2.35,3.82,11.17,11.17,0,0,1-3.51,3,7.79,7.79,0,0,1-4.58.86,7,7,0,0,1-2.22-.67,7.07,7.07,0,0,1-1.79-1.31,8.23,8.23,0,0,1-1.22-1.57,11.54,11.54,0,0,1-.79-1.57,16,16,0,0,1-.81-2.78c-.16-.81-.25-1.52-.32-2.08a1.94,1.94,0,0,1,0-.24c-.51,1-1,2.06-1.48,3.11s-1.17,2.55-1.93,4.1a24.68,24.68,0,0,1-2.62,4.25,11,11,0,0,1-3.46,3,5.92,5.92,0,0,1-4.55.4,3.7,3.7,0,0,1-2.38-1.73,9.65,9.65,0,0,1-1.13-3,18.57,18.57,0,0,1-.4-3.41c0-1.16,0-2.16,0-3a59,59,0,0,1,.5-5.93q.39-3,1.08-5.94c.07-.33.28-1.12.65-2.37s.72-2.59,1.09-4,.64-2.7.83-3.86.2-1.79,0-1.93-.54.14-1,.8A27.59,27.59,0,0,0,63.72,40c-.63,1-1.27,2.24-1.93,3.56l-1.88,3.76c-.6,1.19-1.11,2.22-1.54,3.11s-.7,1.44-.83,1.63l-1.09,1.88c-.47.8-1,1.64-1.59,2.53A23.91,23.91,0,0,1,53,58.94a6,6,0,0,1-2,1.58,2,2,0,0,1-1.88-.05A4.42,4.42,0,0,1,47.54,58a7.3,7.3,0,0,1-.24-4.35c.36-1.52.71-2.94,1-4.26s.7-2.58,1.13-4A6.58,6.58,0,0,1,51.8,42a3,3,0,0,1,1-.35,4.68,4.68,0,0,1,1.33-.1,1.89,1.89,0,0,1,1,.35.85.85,0,0,1,.2,1c-.07.26-.27.81-.6,1.63s-.64,1.68-.94,2.57a17.27,17.27,0,0,0-.64,2.52c-.13.79,0,1.29.3,1.48.06.07.31-.21.74-.83s.89-1.36,1.39-2.18,1-1.62,1.38-2.37a9.26,9.26,0,0,1,.84-1.34A31,31,0,0,1,61,40.2,31.9,31.9,0,0,0,64.16,36c.4-.59.81-1.23,1.24-1.93a7.84,7.84,0,0,1,1.48-1.78,5.53,5.53,0,0,1,1.83-1.08,3.57,3.57,0,0,1,2.28,0,3.63,3.63,0,0,1,2.81,2.82,9.77,9.77,0,0,1-.24,4.21Q72,43.66,70.64,49.05T68.41,60a18.7,18.7,0,0,0-.24,2,25.31,25.31,0,0,0-.1,3.26,8.33,8.33,0,0,0,.44,2.67c.27.69.73.84,1.39.44a5.76,5.76,0,0,0,1.78-1.77c.52-.79,1-1.64,1.53-2.53a28.56,28.56,0,0,0,1.34-2.72Q75.13,60,75.63,59a76.85,76.85,0,0,1,5-8.39c0-.23.09-.45.14-.67A21.67,21.67,0,0,1,83.51,43c.32-.5.64-1,1-1.42a14.5,14.5,0,0,1,1.07-1.26A10.61,10.61,0,0,1,88,38.44a6.87,6.87,0,0,1,2.29-.84,4.33,4.33,0,0,1,.83-.05,1.67,1.67,0,0,1,.47.09,1.17,1.17,0,0,1,.61.67,1.47,1.47,0,0,1,0,.72,3.77,3.77,0,0,1-.17.58c-.05.14-.09.23-.09.23a1.17,1.17,0,0,1,0,.28,2,2,0,0,1-.15.64,4.4,4.4,0,0,1-.43.83,7,7,0,0,1-.82,1c-.09.1-.24.24-.44.43s-.43.44-.7.75a12,12,0,0,0-.89,1.15,16.75,16.75,0,0,0-1,1.52,20.15,20.15,0,0,0-1.73,4,18.93,18.93,0,0,0-.6,2.36,20.33,20.33,0,0,0-.33,2.5c0,.42,0,.84-.06,1.26s0,.82,0,1.23a12.61,12.61,0,0,0,.35,2.29A4.86,4.86,0,0,0,86.93,63a3.36,3.36,0,0,0,2.45.49,4.38,4.38,0,0,0,1.07-.29l.22-.08.19-.1a3.76,3.76,0,0,0,.35-.18,7.49,7.49,0,0,0,1.5-1.13,13.41,13.41,0,0,0,1.71-2,22.52,22.52,0,0,0,1.63-2.82c.52-1,1-2.13,1.43-3.23a28.1,28.1,0,0,0,1.7-6.34A25.09,25.09,0,0,0,99.42,43c0-.41,0-1-.1-1.76a15.07,15.07,0,0,0-.44-2.49,7.37,7.37,0,0,0-1.36-2.57,6.89,6.89,0,0,0-2.44-1.95,6.21,6.21,0,0,0-3-.47,11.09,11.09,0,0,0-1.52.2c-.5.08-1,.16-1.39.27a7,7,0,0,0-3,1.38c-.6.5-1.19,1-1.64,1.4l-.55.46-.21.17.49-.64c.3-.38.71-.88,1.17-1.36a9.86,9.86,0,0,1,1.42-1.25,3.78,3.78,0,0,0,.85-.68,1.73,1.73,0,0,1,.82-.5,12,12,0,0,1,1.84-.53l.56-.11.63-.11a9.68,9.68,0,0,1,1.35-.12,7.64,7.64,0,0,1,2.85.49,6.24,6.24,0,0,1,1,.51,8.65,8.65,0,0,1,1.57,1.19,9.7,9.7,0,0,1,1.64,2.1l.18.33a2.85,2.85,0,0,1,.17.35c.06.12.12.25.17.37l.14.39a6.61,6.61,0,0,1,.25.79c.07.26.14.54.2.82a27.06,27.06,0,0,1,.34,7.47"/><path class="cls-1" d="M41.67,35a3.07,3.07,0,0,1-1.75,0,2.4,2.4,0,0,1-1.4-1.14c-.35-.58-.18-1.28.52-2.1s1.37-.9,2-.26a5.18,5.18,0,0,1,1.3,2,.07.07,0,0,1,0,0c.11.8-.12,1.28-.7,1.46"/><path class="cls-1" d="M68.25,87.52a.21.21,0,0,0-.26,0,2.82,2.82,0,0,1-1.68.53,2.63,2.63,0,0,1-1.69-.53A1.74,1.74,0,0,1,64,86.07a2.1,2.1,0,0,1,1.18-1.71.19.19,0,0,0,0-.28,3.22,3.22,0,0,1-.31-.49,1.54,1.54,0,0,1-.14-.67,1.42,1.42,0,0,1,.57-1.21,2.26,2.26,0,0,1,1.36-.42A2.22,2.22,0,0,1,68,81.7a1.33,1.33,0,0,1,.56,1.13c0,.57-.39,1.09-1.15,1.58a.2.2,0,0,0,0,.29l.45.55a.2.2,0,0,0,.33,0l.15-.39a.19.19,0,0,1,.29-.09l.75.53a.2.2,0,0,1,.07.23,7.07,7.07,0,0,1-.4.83.2.2,0,0,0,0,.23l.68.67a.18.18,0,0,1,0,.27l-.64.61a.19.19,0,0,1-.27,0Zm-2.63-.86a1.1,1.1,0,0,0,.7.21,1.32,1.32,0,0,0,.74-.27.2.2,0,0,0,0-.3c-.34-.36-.65-.7-.92-1a.19.19,0,0,0-.25,0,1.11,1.11,0,0,0-.57.87.68.68,0,0,0,.27.54m1-4.27a.53.53,0,0,0-.37.15.47.47,0,0,0-.16.39,1.14,1.14,0,0,0,.26.57.22.22,0,0,0,.27.06c.36-.22.54-.42.54-.62a.49.49,0,0,0-.17-.41.57.57,0,0,0-.37-.14"/></g></g></svg>