<svg xmlns="http://www.w3.org/2000/svg" viewBox="0 0 100 45"><defs><style>.cls-1{fill:#cba16d;}</style></defs><g id="Layer_2" data-name="Layer 2"><g id="Layer_1-2" data-name="Layer 1"><path class="cls-1" d="M0,36.43C0,29,1.34,13.78,3.41,6.54A7,7,0,0,1,5.66,2.67,7.5,7.5,0,0,1,8.91,1.59c10.91-1.67,22,.07,33.05.19C56,1.94,70,0,84.08,0A13.85,13.85,0,0,1,97.83,9.68C99,13.23,99.19,17,99.36,20.78l.6,12.94c.13,2.75.07,5.93-2,7.67-1.36,1.12-3.23,1.3-5,1.44l-12.57,1c-7.65.61-15.31,1.21-23,1.18-8.11,0-16.2-.79-24.28-1.54-7.7-.71-16,1.26-23.68.54a18.44,18.44,0,0,1-5.32-1,6.34,6.34,0,0,1-3.78-3.7A9.08,9.08,0,0,1,0,36.43Z"/></g></g></svg>